<?xml version="1.0" encoding="UTF-8"?>
<svg xmlns="http://www.w3.org/2000/svg"
     viewBox="0 0 828 396"
     width="828" height="396"
     overflow="visible">
  <title>Keyboard Layout</title>
  <rect width="828" height="396" fill="#eeeeee" rx="6"/>
  <g>
    <rect x="9.5" y="9.5" width="54" height="54" fill="#cccccc" stroke="#000000" stroke-width="1" rx="5"/>
    <rect x="15" y="12" width="42" height="42" fill="#fbfbfb" rx="3"/>
    <text x="17" y="13" font-size="12" fill="#000000" font-family="sans-serif" text-anchor="start" dominant-baseline="hanging">esc</text>
  </g>
  <g>
    <rect x="63.5" y="9.5" width="54" height="54" fill="#cccccc" stroke="#000000" stroke-width="1" rx="5"/>
    <rect x="69" y="12" width="42" height="42" fill="#fbfbfb" rx="3"/>
    <text x="71" y="13" font-size="12" fill="#000000" font-family="sans-serif" text-anchor="start" dominant-baseline="hanging">F1</text>
  </g>
  <g>
    <rect x="117.5" y="9.5" width="54" height="54" fill="#cccccc" stroke="#000000" stroke-width="1" rx="5"/>
    <rect x="123" y="12" width="42" height="42" fill="#fbfbfb" rx="3"/>
    <text x="125" y="13" font-size="12" fill="#000000" font-family="sans-serif" text-anchor="start" dominant-baseline="hanging">F2</text>
  </g>
  <g>
    <rect x="171.5" y="9.5" width="54" height="54" fill="#cccccc" stroke="#000000" stroke-width="1" rx="5"/>
    <rect x="177" y="12" width="42" height="42" fill="#fbfbfb" rx="3"/>
    <text x="179" y="13" font-size="12" fill="#000000" font-family="sans-serif" text-anchor="start" dominant-baseline="hanging">F3</text>
  </g>
  <g>
    <rect x="225.5" y="9.5" width="54" height="54" fill="#cccccc" stroke="#000000" stroke-width="1" rx="5"/>
    <rect x="231" y="12" width="42" height="42" fill="#fbfbfb" rx="3"/>
    <text x="233" y="13" font-size="12" fill="#000000" font-family="sans-serif" text-anchor="start" dominant-baseline="hanging">F4</text>
  </g>
  <g>
    <rect x="279.5" y="9.5" width="54" height="54" fill="#cccccc" stroke="#000000" stroke-width="1" rx="5"/>
    <rect x="285" y="12" width="42" height="42" fill="#fbfbfb" rx="3"/>
    <text x="287" y="13" font-size="12" fill="#000000" font-family="sans-serif" text-anchor="start" dominant-baseline="hanging">F5</text>
  </g>
  <g>
    <rect x="387.5" y="9.5" width="54" height="54" fill="#cccccc" stroke="#000000" stroke-width="1" rx="5"/>
    <rect x="393" y="12" width="42" height="42" fill="#fbfbfb" rx="3"/>
    <text x="395" y="13" font-size="12" fill="#000000" font-family="sans-serif" text-anchor="start" dominant-baseline="hanging">F6</text>
  </g>
  <g>
    <rect x="441.5" y="9.5" width="54" height="54" fill="#cccccc" stroke="#000000" stroke-width="1" rx="5"/>
    <rect x="447" y="12" width="42" height="42" fill="#fbfbfb" rx="3"/>
    <text x="449" y="13" font-size="12" fill="#000000" font-family="sans-serif" text-anchor="start" dominant-baseline="hanging">F7</text>
  </g>
  <g>
    <rect x="495.5" y="9.5" width="54" height="54" fill="#cccccc" stroke="#000000" stroke-width="1" rx="5"/>
    <rect x="501" y="12" width="42" height="42" fill="#fbfbfb" rx="3"/>
    <text x="503" y="13" font-size="12" fill="#000000" font-family="sans-serif" text-anchor="start" dominant-baseline="hanging">F8</text>
  </g>
  <g>
    <rect x="549.5" y="9.5" width="54" height="54" fill="#cccccc" stroke="#000000" stroke-width="1" rx="5"/>
    <rect x="555" y="12" width="42" height="42" fill="#fbfbfb" rx="3"/>
    <text x="557" y="13" font-size="12" fill="#000000" font-family="sans-serif" text-anchor="start" dominant-baseline="hanging">F9</text>
  </g>
  <g>
    <rect x="603.5" y="9.5" width="54" height="54" fill="#cccccc" stroke="#000000" stroke-width="1" rx="5"/>
    <rect x="609" y="12" width="42" height="42" fill="#fbfbfb" rx="3"/>
    <text x="611" y="13" font-size="12" fill="#000000" font-family="sans-serif" text-anchor="start" dominant-baseline="hanging">F10</text>
  </g>
  <g>
    <rect x="657.5" y="9.5" width="54" height="54" fill="#cccccc" stroke="#000000" stroke-width="1" rx="5"/>
    <rect x="663" y="12" width="42" height="42" fill="#fbfbfb" rx="3"/>
    <text x="665" y="13" font-size="12" fill="#000000" font-family="sans-serif" text-anchor="start" dominant-baseline="hanging">F11</text>
  </g>
  <g>
    <rect x="711.5" y="9.5" width="54" height="54" fill="#cccccc" stroke="#000000" stroke-width="1" rx="5"/>
    <rect x="717" y="12" width="42" height="42" fill="#fbfbfb" rx="3"/>
    <text x="719" y="13" font-size="12" fill="#000000" font-family="sans-serif" text-anchor="start" dominant-baseline="hanging">F12</text>
  </g>
  <g>
    <rect x="495.5" y="279.5" width="54" height="54" fill="#cccccc" stroke="#000000" stroke-width="1" rx="5"/>
    <rect x="501" y="282" width="42" height="42" fill="#fbfbfb" rx="3"/>
    <text x="503" y="283" font-size="12" fill="#000000" font-family="sans-serif" text-anchor="start" dominant-baseline="hanging">dsktp</text>
  </g>
  <g>
    <rect x="765.5" y="63.5" width="54" height="54" fill="#cccccc" stroke="#000000" stroke-width="1" rx="5"/>
    <rect x="771" y="66" width="42" height="42" fill="#fbfbfb" rx="3"/>
    <text x="773" y="67" font-size="12" fill="#000000" font-family="sans-serif" text-anchor="start" dominant-baseline="hanging">calc</text>
  </g>
  <g>
    <rect x="765.5" y="117.5" width="54" height="54" fill="#cccccc" stroke="#000000" stroke-width="1" rx="5"/>
    <rect x="771" y="120" width="42" height="42" fill="#fbfbfb" rx="3"/>
    <text x="773" y="121" font-size="12" fill="#000000" font-family="sans-serif" text-anchor="start" dominant-baseline="hanging">mail</text>
  </g>
  <g>
    <rect x="9.5" y="63.5" width="54" height="54" fill="#cccccc" stroke="#000000" stroke-width="1" rx="5"/>
    <rect x="15" y="66" width="42" height="42" fill="#fbfbfb" rx="3"/>
    <text x="17" y="67" font-size="12" fill="#000000" font-family="sans-serif" text-anchor="start" dominant-baseline="hanging">~</text>
    <text x="17" y="103" font-size="12" fill="#000000" font-family="sans-serif" text-anchor="start" dominant-baseline="auto">`</text>
  </g>
  <g>
    <rect x="63.5" y="63.5" width="54" height="54" fill="#cccccc" stroke="#000000" stroke-width="1" rx="5"/>
    <rect x="69" y="66" width="42" height="42" fill="#fbfbfb" rx="3"/>
    <text x="71" y="67" font-size="12" fill="#000000" font-family="sans-serif" text-anchor="start" dominant-baseline="hanging">!</text>
    <text x="71" y="103" font-size="12" fill="#000000" font-family="sans-serif" text-anchor="start" dominant-baseline="auto">1</text>
  </g>
  <g>
    <rect x="117.5" y="63.5" width="54" height="54" fill="#cccccc" stroke="#000000" stroke-width="1" rx="5"/>
    <rect x="123" y="66" width="42" height="42" fill="#fbfbfb" rx="3"/>
    <text x="125" y="67" font-size="12" fill="#000000" font-family="sans-serif" text-anchor="start" dominant-baseline="hanging">@</text>
    <text x="125" y="103" font-size="12" fill="#000000" font-family="sans-serif" text-anchor="start" dominant-baseline="auto">2</text>
  </g>
  <g>
    <rect x="171.5" y="63.5" width="54" height="54" fill="#cccccc" stroke="#000000" stroke-width="1" rx="5"/>
    <rect x="177" y="66" width="42" height="42" fill="#fbfbfb" rx="3"/>
    <text x="179" y="67" font-size="12" fill="#000000" font-family="sans-serif" text-anchor="start" dominant-baseline="hanging">#</text>
    <text x="179" y="103" font-size="12" fill="#000000" font-family="sans-serif" text-anchor="start" dominant-baseline="auto">3</text>
  </g>
  <g>
    <rect x="225.5" y="63.5" width="54" height="54" fill="#cccccc" stroke="#000000" stroke-width="1" rx="5"/>
    <rect x="231" y="66" width="42" height="42" fill="#fbfbfb" rx="3"/>
    <text x="233" y="67" font-size="12" fill="#000000" font-family="sans-serif" text-anchor="start" dominant-baseline="hanging">$</text>
    <text x="233" y="103" font-size="12" fill="#000000" font-family="sans-serif" text-anchor="start" dominant-baseline="auto">4</text>
  </g>
  <g>
    <rect x="279.5" y="63.5" width="54" height="54" fill="#cccccc" stroke="#000000" stroke-width="1" rx="5"/>
    <rect x="285" y="66" width="42" height="42" fill="#fbfbfb" rx="3"/>
    <text x="287" y="67" font-size="12" fill="#000000" font-family="sans-serif" text-anchor="start" dominant-baseline="hanging">%</text>
    <text x="287" y="103" font-size="12" fill="#000000" font-family="sans-serif" text-anchor="start" dominant-baseline="auto">5</text>
  </g>
  <g>
    <rect x="387.5" y="63.5" width="54" height="54" fill="#cccccc" stroke="#000000" stroke-width="1" rx="5"/>
    <rect x="393" y="66" width="42" height="42" fill="#fbfbfb" rx="3"/>
    <text x="395" y="67" font-size="12" fill="#000000" font-family="sans-serif" text-anchor="start" dominant-baseline="hanging">^</text>
    <text x="395" y="103" font-size="12" fill="#000000" font-family="sans-serif" text-anchor="start" dominant-baseline="auto">6</text>
  </g>
  <g>
    <rect x="441.5" y="63.5" width="54" height="54" fill="#cccccc" stroke="#000000" stroke-width="1" rx="5"/>
    <rect x="447" y="66" width="42" height="42" fill="#fbfbfb" rx="3"/>
    <text x="449" y="67" font-size="12" fill="#000000" font-family="sans-serif" text-anchor="start" dominant-baseline="hanging">&amp;</text>
    <text x="449" y="103" font-size="12" fill="#000000" font-family="sans-serif" text-anchor="start" dominant-baseline="auto">7</text>
  </g>
  <g>
    <rect x="495.5" y="63.5" width="54" height="54" fill="#cccccc" stroke="#000000" stroke-width="1" rx="5"/>
    <rect x="501" y="66" width="42" height="42" fill="#fbfbfb" rx="3"/>
    <text x="503" y="67" font-size="12" fill="#000000" font-family="sans-serif" text-anchor="start" dominant-baseline="hanging">*</text>
    <text x="503" y="103" font-size="12" fill="#000000" font-family="sans-serif" text-anchor="start" dominant-baseline="auto">8</text>
  </g>
  <g>
    <rect x="549.5" y="63.5" width="54" height="54" fill="#cccccc" stroke="#000000" stroke-width="1" rx="5"/>
    <rect x="555" y="66" width="42" height="42" fill="#fbfbfb" rx="3"/>
    <text x="557" y="67" font-size="12" fill="#000000" font-family="sans-serif" text-anchor="start" dominant-baseline="hanging">(</text>
    <text x="557" y="103" font-size="12" fill="#000000" font-family="sans-serif" text-anchor="start" dominant-baseline="auto">9</text>
  </g>
  <g>
    <rect x="603.5" y="63.5" width="54" height="54" fill="#cccccc" stroke="#000000" stroke-width="1" rx="5"/>
    <rect x="609" y="66" width="42" height="42" fill="#fbfbfb" rx="3"/>
    <text x="611" y="67" font-size="12" fill="#000000" font-family="sans-serif" text-anchor="start" dominant-baseline="hanging">)</text>
    <text x="611" y="103" font-size="12" fill="#000000" font-family="sans-serif" text-anchor="start" dominant-baseline="auto">0</text>
  </g>
  <g>
    <rect x="657.5" y="171.5" width="54" height="54" fill="#cccccc" stroke="#000000" stroke-width="1" rx="5"/>
    <rect x="663" y="174" width="42" height="42" fill="#fbfbfb" rx="3"/>
    <text x="665" y="175" font-size="12" fill="#000000" font-family="sans-serif" text-anchor="start" dominant-baseline="hanging">_</text>
    <text x="665" y="211" font-size="12" fill="#000000" font-family="sans-serif" text-anchor="start" dominant-baseline="auto">-</text>
  </g>
  <g>
    <rect x="711.5" y="117.5" width="54" height="54" fill="#cccccc" stroke="#000000" stroke-width="1" rx="5"/>
    <rect x="717" y="120" width="42" height="42" fill="#fbfbfb" rx="3"/>
    <text x="719" y="121" font-size="12" fill="#000000" font-family="sans-serif" text-anchor="start" dominant-baseline="hanging">+</text>
    <text x="719" y="157" font-size="12" fill="#000000" font-family="sans-serif" text-anchor="start" dominant-baseline="auto">=</text>
  </g>
  <g>
    <rect x="333.5" y="63.5" width="54" height="108" fill="#cccccc" stroke="#000000" stroke-width="1" rx="5"/>
    <rect x="339" y="66" width="42" height="96" fill="#fbfbfb" rx="3"/>
    <text x="341" y="67" font-size="12" fill="#000000" font-family="sans-serif" text-anchor="start" dominant-baseline="hanging"><tspan x="341" dy="0">back</tspan><tspan x="341" dy="14.399999999999999">space</tspan></text>
  </g>
  <g>
    <rect x="63.5" y="279.5" width="54" height="54" fill="#cccccc" stroke="#000000" stroke-width="1" rx="5"/>
    <rect x="69" y="282" width="42" height="42" fill="#fbfbfb" rx="3"/>
    <text x="71" y="283" font-size="12" fill="#000000" font-family="sans-serif" text-anchor="start" dominant-baseline="hanging">play</text>
  </g>
  <g>
    <rect x="549.5" y="279.5" width="54" height="54" fill="#cccccc" stroke="#000000" stroke-width="1" rx="5"/>
    <rect x="555" y="282" width="42" height="42" fill="#fbfbfb" rx="3"/>
    <text x="557" y="283" font-size="12" fill="#000000" font-family="sans-serif" text-anchor="start" dominant-baseline="hanging">hame</text>
  </g>
  <g>
    <rect x="765.5" y="279.5" width="54" height="54" fill="#cccccc" stroke="#000000" stroke-width="1" rx="5"/>
    <rect x="771" y="282" width="42" height="42" fill="#fbfbfb" rx="3"/>
    <text x="773" y="283" font-size="12" fill="#000000" font-family="sans-serif" text-anchor="start" dominant-baseline="hanging">pg up</text>
  </g>
  <g>
    <rect x="765.5" y="9.5" width="54" height="54" fill="#cccccc" stroke="#000000" stroke-width="1" rx="5"/>
    <rect x="771" y="12" width="42" height="42" fill="#fbfbfb" rx="3"/>
    <text x="773" y="13" font-size="12" fill="#000000" font-family="sans-serif" text-anchor="start" dominant-baseline="hanging">num</text>
  </g>
  <g>
    <rect x="765.5" y="225.5" width="54" height="54" fill="#cccccc" stroke="#000000" stroke-width="1" rx="5"/>
    <rect x="771" y="228" width="42" height="42" fill="#fbfbfb" rx="3"/>
    <text x="773" y="229" font-size="12" fill="#000000" font-family="sans-serif" text-anchor="start" dominant-baseline="hanging">www</text>
  </g>
  <g>
    <rect x="9.5" y="333.5" width="54" height="54" fill="#cccccc" stroke="#000000" stroke-width="1" rx="5"/>
    <rect x="15" y="336" width="42" height="42" fill="#fbfbfb" rx="3"/>
    <text x="17" y="337" font-size="12" fill="#000000" font-family="sans-serif" text-anchor="start" dominant-baseline="hanging">fn</text>
  </g>
  <g>
    <rect x="9.5" y="117.5" width="54" height="54" fill="#cccccc" stroke="#000000" stroke-width="1" rx="5"/>
    <rect x="15" y="120" width="42" height="42" fill="#fbfbfb" rx="3"/>
    <text x="17" y="121" font-size="12" fill="#000000" font-family="sans-serif" text-anchor="start" dominant-baseline="hanging">tab</text>
  </g>
  <g>
    <rect x="117.5" y="225.5" width="54" height="54" fill="#cccccc" stroke="#000000" stroke-width="1" rx="5"/>
    <rect x="123" y="228" width="42" height="42" fill="#fbfbfb" rx="3"/>
    <text x="125" y="229" font-size="12" fill="#000000" font-family="sans-serif" text-anchor="start" dominant-baseline="hanging">Q</text>
  </g>
  <g>
    <rect x="495.5" y="225.5" width="54" height="54" fill="#cccccc" stroke="#000000" stroke-width="1" rx="5"/>
    <rect x="501" y="228" width="42" height="42" fill="#fbfbfb" rx="3"/>
    <text x="503" y="229" font-size="12" fill="#000000" font-family="sans-serif" text-anchor="start" dominant-baseline="hanging">W</text>
  </g>
  <g>
    <rect x="171.5" y="171.5" width="54" height="54" fill="#cccccc" stroke="#000000" stroke-width="1" rx="5"/>
    <rect x="177" y="174" width="42" height="42" fill="#fbfbfb" rx="3"/>
    <text x="179" y="175" font-size="12" fill="#000000" font-family="sans-serif" text-anchor="start" dominant-baseline="hanging">E</text>
  </g>
  <g>
    <rect x="549.5" y="117.5" width="54" height="54" fill="#cccccc" stroke="#000000" stroke-width="1" rx="5"/>
    <rect x="555" y="120" width="42" height="42" fill="#fbfbfb" rx="3"/>
    <text x="557" y="121" font-size="12" fill="#000000" font-family="sans-serif" text-anchor="start" dominant-baseline="hanging">R</text>
  </g>
  <g>
    <rect x="495.5" y="171.5" width="54" height="54" fill="#cccccc" stroke="#000000" stroke-width="1" rx="5"/>
    <rect x="501" y="174" width="42" height="42" fill="#fbfbfb" rx="3"/>
    <text x="503" y="175" font-size="12" fill="#000000" font-family="sans-serif" text-anchor="start" dominant-baseline="hanging">T</text>
  </g>
  <g>
    <rect x="279.5" y="117.5" width="54" height="54" fill="#cccccc" stroke="#000000" stroke-width="1" rx="5"/>
    <rect x="285" y="120" width="42" height="42" fill="#fbfbfb" rx="3"/>
    <text x="287" y="121" font-size="12" fill="#000000" font-family="sans-serif" text-anchor="start" dominant-baseline="hanging">Y</text>
  </g>
  <g>
    <rect x="225.5" y="171.5" width="54" height="54" fill="#cccccc" stroke="#000000" stroke-width="1" rx="5"/>
    <rect x="231" y="174" width="42" height="42" fill="#fbfbfb" rx="3"/>
    <text x="233" y="175" font-size="12" fill="#000000" font-family="sans-serif" text-anchor="start" dominant-baseline="hanging">U</text>
  </g>
  <g>
    <rect x="279.5" y="171.5" width="54" height="54" fill="#cccccc" stroke="#000000" stroke-width="1" rx="5"/>
    <rect x="285" y="174" width="42" height="42" fill="#fbfbfb" rx="3"/>
    <text x="287" y="175" font-size="12" fill="#000000" font-family="sans-serif" text-anchor="start" dominant-baseline="hanging">I</text>
  </g>
  <g>
    <rect x="117.5" y="171.5" width="54" height="54" fill="#cccccc" stroke="#000000" stroke-width="1" rx="5"/>
    <rect x="123" y="174" width="42" height="42" fill="#fbfbfb" rx="3"/>
    <text x="125" y="175" font-size="12" fill="#000000" font-family="sans-serif" text-anchor="start" dominant-baseline="hanging">O</text>
  </g>
  <g>
    <rect x="225.5" y="117.5" width="54" height="54" fill="#cccccc" stroke="#000000" stroke-width="1" rx="5"/>
    <rect x="231" y="120" width="42" height="42" fill="#fbfbfb" rx="3"/>
    <text x="233" y="121" font-size="12" fill="#000000" font-family="sans-serif" text-anchor="start" dominant-baseline="hanging">P</text>
  </g>
  <g>
    <rect x="657.5" y="63.5" width="54" height="54" fill="#cccccc" stroke="#000000" stroke-width="1" rx="5"/>
    <rect x="663" y="66" width="42" height="42" fill="#fbfbfb" rx="3"/>
    <text x="665" y="67" font-size="12" fill="#000000" font-family="sans-serif" text-anchor="start" dominant-baseline="hanging">{</text>
    <text x="665" y="103" font-size="12" fill="#000000" font-family="sans-serif" text-anchor="start" dominant-baseline="auto">[</text>
  </g>
  <g>
    <rect x="711.5" y="63.5" width="54" height="54" fill="#cccccc" stroke="#000000" stroke-width="1" rx="5"/>
    <rect x="717" y="66" width="42" height="42" fill="#fbfbfb" rx="3"/>
    <text x="719" y="67" font-size="12" fill="#000000" font-family="sans-serif" text-anchor="start" dominant-baseline="hanging">}</text>
    <text x="719" y="103" font-size="12" fill="#000000" font-family="sans-serif" text-anchor="start" dominant-baseline="auto">]</text>
  </g>
  <g>
    <rect x="657.5" y="225.5" width="54" height="54" fill="#cccccc" stroke="#000000" stroke-width="1" rx="5"/>
    <rect x="663" y="228" width="42" height="42" fill="#fbfbfb" rx="3"/>
    <text x="665" y="229" font-size="12" fill="#000000" font-family="sans-serif" text-anchor="start" dominant-baseline="hanging">|</text>
    <text x="665" y="265" font-size="12" fill="#000000" font-family="sans-serif" text-anchor="start" dominant-baseline="auto">\</text>
  </g>
  <g>
    <rect x="333.5" y="9.5" width="54" height="54" fill="#cccccc" stroke="#000000" stroke-width="1" rx="5"/>
    <rect x="339" y="12" width="42" height="42" fill="#fbfbfb" rx="3"/>
    <text x="341" y="13" font-size="12" fill="#000000" font-family="sans-serif" text-anchor="start" dominant-baseline="hanging">delete</text>
  </g>
  <g>
    <rect x="657.5" y="279.5" width="54" height="54" fill="#cccccc" stroke="#000000" stroke-width="1" rx="5"/>
    <rect x="663" y="282" width="42" height="42" fill="#fbfbfb" rx="3"/>
    <text x="665" y="283" font-size="12" fill="#000000" font-family="sans-serif" text-anchor="start" dominant-baseline="hanging">end</text>
  </g>
  <g>
    <rect x="765.5" y="333.5" width="54" height="54" fill="#cccccc" stroke="#000000" stroke-width="1" rx="5"/>
    <rect x="771" y="336" width="42" height="42" fill="#fbfbfb" rx="3"/>
    <text x="773" y="337" font-size="12" fill="#000000" font-family="sans-serif" text-anchor="start" dominant-baseline="hanging">pg dn</text>
  </g>
  <g>
    <rect x="765.5" y="171.5" width="54" height="54" fill="#cccccc" stroke="#000000" stroke-width="1" rx="5"/>
    <rect x="771" y="174" width="42" height="42" fill="#fbfbfb" rx="3"/>
    <text x="773" y="175" font-size="12" fill="#000000" font-family="sans-serif" text-anchor="start" dominant-baseline="hanging">caps</text>
  </g>
  <g>
    <rect x="63.5" y="171.5" width="54" height="54" fill="#cccccc" stroke="#000000" stroke-width="1" rx="5"/>
    <rect x="69" y="174" width="42" height="42" fill="#fbfbfb" rx="3"/>
    <text x="71" y="175" font-size="12" fill="#000000" font-family="sans-serif" text-anchor="start" dominant-baseline="hanging">A</text>
  </g>
  <g>
    <rect x="603.5" y="171.5" width="54" height="54" fill="#cccccc" stroke="#000000" stroke-width="1" rx="5"/>
    <rect x="609" y="174" width="42" height="42" fill="#fbfbfb" rx="3"/>
    <text x="611" y="175" font-size="12" fill="#000000" font-family="sans-serif" text-anchor="start" dominant-baseline="hanging">S</text>
  </g>
  <g>
    <rect x="387.5" y="171.5" width="54" height="54" fill="#cccccc" stroke="#000000" stroke-width="1" rx="5"/>
    <rect x="393" y="174" width="42" height="42" fill="#fbfbfb" rx="3"/>
    <text x="395" y="175" font-size="12" fill="#000000" font-family="sans-serif" text-anchor="start" dominant-baseline="hanging">D</text>
  </g>
  <g>
    <rect x="387.5" y="117.5" width="54" height="54" fill="#cccccc" stroke="#000000" stroke-width="1" rx="5"/>
    <rect x="393" y="120" width="42" height="42" fill="#fbfbfb" rx="3"/>
    <text x="395" y="121" font-size="12" fill="#000000" font-family="sans-serif" text-anchor="start" dominant-baseline="hanging">F</text>
  </g>
  <g>
    <rect x="441.5" y="117.5" width="54" height="54" fill="#cccccc" stroke="#000000" stroke-width="1" rx="5"/>
    <rect x="447" y="120" width="42" height="42" fill="#fbfbfb" rx="3"/>
    <text x="449" y="121" font-size="12" fill="#000000" font-family="sans-serif" text-anchor="start" dominant-baseline="hanging">G</text>
  </g>
  <g>
    <rect x="441.5" y="171.5" width="54" height="54" fill="#cccccc" stroke="#000000" stroke-width="1" rx="5"/>
    <rect x="447" y="174" width="42" height="42" fill="#fbfbfb" rx="3"/>
    <text x="449" y="175" font-size="12" fill="#000000" font-family="sans-serif" text-anchor="start" dominant-baseline="hanging">H</text>
  </g>
  <g>
    <rect x="171.5" y="225.5" width="54" height="54" fill="#cccccc" stroke="#000000" stroke-width="1" rx="5"/>
    <rect x="177" y="228" width="42" height="42" fill="#fbfbfb" rx="3"/>
    <text x="179" y="229" font-size="12" fill="#000000" font-family="sans-serif" text-anchor="start" dominant-baseline="hanging">J</text>
  </g>
  <g>
    <rect x="225.5" y="225.5" width="54" height="54" fill="#cccccc" stroke="#000000" stroke-width="1" rx="5"/>
    <rect x="231" y="228" width="42" height="42" fill="#fbfbfb" rx="3"/>
    <text x="233" y="229" font-size="12" fill="#000000" font-family="sans-serif" text-anchor="start" dominant-baseline="hanging">K</text>
  </g>
  <g>
    <rect x="603.5" y="117.5" width="54" height="54" fill="#cccccc" stroke="#000000" stroke-width="1" rx="5"/>
    <rect x="609" y="120" width="42" height="42" fill="#fbfbfb" rx="3"/>
    <text x="611" y="121" font-size="12" fill="#000000" font-family="sans-serif" text-anchor="start" dominant-baseline="hanging">L</text>
  </g>
  <g>
    <rect x="63.5" y="225.5" width="54" height="54" fill="#cccccc" stroke="#000000" stroke-width="1" rx="5"/>
    <rect x="69" y="228" width="42" height="42" fill="#fbfbfb" rx="3"/>
    <text x="71" y="229" font-size="12" fill="#000000" font-family="sans-serif" text-anchor="start" dominant-baseline="hanging">:</text>
    <text x="71" y="265" font-size="12" fill="#000000" font-family="sans-serif" text-anchor="start" dominant-baseline="auto">;</text>
  </g>
  <g>
    <rect x="63.5" y="117.5" width="54" height="54" fill="#cccccc" stroke="#000000" stroke-width="1" rx="5"/>
    <rect x="69" y="120" width="42" height="42" fill="#fbfbfb" rx="3"/>
    <text x="71" y="121" font-size="12" fill="#000000" font-family="sans-serif" text-anchor="start" dominant-baseline="hanging">&quot;</text>
    <text x="71" y="157" font-size="12" fill="#000000" font-family="sans-serif" text-anchor="start" dominant-baseline="auto">&#039;</text>
  </g>
  <g>
    <rect x="333.5" y="171.5" width="54" height="108" fill="#cccccc" stroke="#000000" stroke-width="1" rx="5"/>
    <rect x="339" y="174" width="42" height="96" fill="#fbfbfb" rx="3"/>
    <text x="341" y="175" font-size="12" fill="#000000" font-family="sans-serif" text-anchor="start" dominant-baseline="hanging">Enter</text>
  </g>
  <g>
    <rect x="9.5" y="171.5" width="54" height="108" fill="#cccccc" stroke="#000000" stroke-width="1" rx="5"/>
    <rect x="15" y="174" width="42" height="96" fill="#fbfbfb" rx="3"/>
    <text x="17" y="175" font-size="12" fill="#000000" font-family="sans-serif" text-anchor="start" dominant-baseline="hanging">shift</text>
  </g>
  <g>
    <rect x="603.5" y="225.5" width="54" height="54" fill="#cccccc" stroke="#000000" stroke-width="1" rx="5"/>
    <rect x="609" y="228" width="42" height="42" fill="#fbfbfb" rx="3"/>
    <text x="611" y="229" font-size="12" fill="#000000" font-family="sans-serif" text-anchor="start" dominant-baseline="hanging">Z</text>
  </g>
  <g>
    <rect x="279.5" y="225.5" width="54" height="54" fill="#cccccc" stroke="#000000" stroke-width="1" rx="5"/>
    <rect x="285" y="228" width="42" height="42" fill="#fbfbfb" rx="3"/>
    <text x="287" y="229" font-size="12" fill="#000000" font-family="sans-serif" text-anchor="start" dominant-baseline="hanging">X</text>
  </g>
  <g>
    <rect x="495.5" y="117.5" width="54" height="54" fill="#cccccc" stroke="#000000" stroke-width="1" rx="5"/>
    <rect x="501" y="120" width="42" height="42" fill="#fbfbfb" rx="3"/>
    <text x="503" y="121" font-size="12" fill="#000000" font-family="sans-serif" text-anchor="start" dominant-baseline="hanging">C</text>
  </g>
  <g>
    <rect x="549.5" y="225.5" width="54" height="54" fill="#cccccc" stroke="#000000" stroke-width="1" rx="5"/>
    <rect x="555" y="228" width="42" height="42" fill="#fbfbfb" rx="3"/>
    <text x="557" y="229" font-size="12" fill="#000000" font-family="sans-serif" text-anchor="start" dominant-baseline="hanging">V</text>
  </g>
  <g>
    <rect x="387.5" y="225.5" width="54" height="54" fill="#cccccc" stroke="#000000" stroke-width="1" rx="5"/>
    <rect x="393" y="228" width="42" height="42" fill="#fbfbfb" rx="3"/>
    <text x="395" y="229" font-size="12" fill="#000000" font-family="sans-serif" text-anchor="start" dominant-baseline="hanging">B</text>
  </g>
  <g>
    <rect x="549.5" y="171.5" width="54" height="54" fill="#cccccc" stroke="#000000" stroke-width="1" rx="5"/>
    <rect x="555" y="174" width="42" height="42" fill="#fbfbfb" rx="3"/>
    <text x="557" y="175" font-size="12" fill="#000000" font-family="sans-serif" text-anchor="start" dominant-baseline="hanging">N</text>
  </g>
  <g>
    <rect x="441.5" y="225.5" width="54" height="54" fill="#cccccc" stroke="#000000" stroke-width="1" rx="5"/>
    <rect x="447" y="228" width="42" height="42" fill="#fbfbfb" rx="3"/>
    <text x="449" y="229" font-size="12" fill="#000000" font-family="sans-serif" text-anchor="start" dominant-baseline="hanging">M</text>
  </g>
  <g>
    <rect x="117.5" y="117.5" width="54" height="54" fill="#cccccc" stroke="#000000" stroke-width="1" rx="5"/>
    <rect x="123" y="120" width="42" height="42" fill="#fbfbfb" rx="3"/>
    <text x="125" y="121" font-size="12" fill="#000000" font-family="sans-serif" text-anchor="start" dominant-baseline="hanging">&lt;</text>
    <text x="125" y="157" font-size="12" fill="#000000" font-family="sans-serif" text-anchor="start" dominant-baseline="auto">,</text>
  </g>
  <g>
    <rect x="171.5" y="117.5" width="54" height="54" fill="#cccccc" stroke="#000000" stroke-width="1" rx="5"/>
    <rect x="177" y="120" width="42" height="42" fill="#fbfbfb" rx="3"/>
    <text x="179" y="121" font-size="12" fill="#000000" font-family="sans-serif" text-anchor="start" dominant-baseline="hanging">&gt;</text>
    <text x="179" y="157" font-size="12" fill="#000000" font-family="sans-serif" text-anchor="start" dominant-baseline="auto">.</text>
  </g>
  <g>
    <rect x="657.5" y="117.5" width="54" height="54" fill="#cccccc" stroke="#000000" stroke-width="1" rx="5"/>
    <rect x="663" y="120" width="42" height="42" fill="#fbfbfb" rx="3"/>
    <text x="665" y="121" font-size="12" fill="#000000" font-family="sans-serif" text-anchor="start" dominant-baseline="hanging">?</text>
    <text x="665" y="157" font-size="12" fill="#000000" font-family="sans-serif" text-anchor="start" dominant-baseline="auto">/</text>
  </g>
  <g>
    <rect x="711.5" y="171.5" width="54" height="108" fill="#cccccc" stroke="#000000" stroke-width="1" rx="5"/>
    <rect x="717" y="174" width="42" height="96" fill="#fbfbfb" rx="3"/>
    <text x="719" y="175" font-size="12" fill="#000000" font-family="sans-serif" text-anchor="start" dominant-baseline="hanging">shift</text>
  </g>
  <g>
    <rect x="603.5" y="279.5" width="54" height="54" fill="#cccccc" stroke="#000000" stroke-width="1" rx="5"/>
    <rect x="609" y="282" width="42" height="42" fill="#fbfbfb" rx="3"/>
    <text x="611" y="283" font-size="12" fill="#000000" font-family="sans-serif" text-anchor="start" dominant-baseline="hanging">↑</text>
  </g>
  <g>
    <rect x="9.5" y="279.5" width="54" height="54" fill="#cccccc" stroke="#000000" stroke-width="1" rx="5"/>
    <rect x="15" y="282" width="42" height="42" fill="#fbfbfb" rx="3"/>
    <text x="17" y="283" font-size="12" fill="#000000" font-family="sans-serif" text-anchor="start" dominant-baseline="hanging">ctrl</text>
  </g>
  <g>
    <rect x="63.5" y="333.5" width="81" height="54" fill="#cccccc" stroke="#000000" stroke-width="1" rx="5"/>
    <rect x="69" y="336" width="69" height="42" fill="#fbfbfb" rx="3"/>
    <text x="71" y="337" font-size="12" fill="#000000" font-family="sans-serif" text-anchor="start" dominant-baseline="hanging">start</text>
  </g>
  <g>
    <rect x="144.5" y="333.5" width="81" height="54" fill="#cccccc" stroke="#000000" stroke-width="1" rx="5"/>
    <rect x="150" y="336" width="69" height="42" fill="#fbfbfb" rx="3"/>
    <text x="152" y="337" font-size="12" fill="#000000" font-family="sans-serif" text-anchor="start" dominant-baseline="hanging">alt</text>
  </g>
  <g>
    <rect x="225.5" y="279.5" width="270" height="54" fill="#cccccc" stroke="#000000" stroke-width="1" rx="5"/>
    <rect x="231" y="282" width="258" height="42" fill="#fbfbfb" rx="3"/>
  </g>
  <g>
    <rect x="495.5" y="333.5" width="54" height="54" fill="#cccccc" stroke="#000000" stroke-width="1" rx="5"/>
    <rect x="501" y="336" width="42" height="42" fill="#fbfbfb" rx="3"/>
    <text x="503" y="337" font-size="12" fill="#000000" font-family="sans-serif" text-anchor="start" dominant-baseline="hanging">alt</text>
  </g>
  <g>
    <rect x="171.5" y="279.5" width="54" height="54" fill="#cccccc" stroke="#000000" stroke-width="1" rx="5"/>
    <rect x="177" y="282" width="42" height="42" fill="#fbfbfb" rx="3"/>
    <text x="179" y="283" font-size="12" fill="#000000" font-family="sans-serif" text-anchor="start" dominant-baseline="hanging">shuffle</text>
  </g>
  <g>
    <rect x="117.5" y="279.5" width="54" height="54" fill="#cccccc" stroke="#000000" stroke-width="1" rx="5"/>
    <rect x="123" y="282" width="42" height="42" fill="#fbfbfb" rx="3"/>
    <text x="125" y="283" font-size="12" fill="#000000" font-family="sans-serif" text-anchor="start" dominant-baseline="hanging">app</text>
  </g>
  <g>
    <rect x="711.5" y="279.5" width="54" height="108" fill="#cccccc" stroke="#000000" stroke-width="1" rx="5"/>
    <rect x="717" y="282" width="42" height="96" fill="#fbfbfb" rx="3"/>
    <text x="719" y="283" font-size="12" fill="#000000" font-family="sans-serif" text-anchor="start" dominant-baseline="hanging">ctrl</text>
  </g>
  <g>
    <rect x="549.5" y="333.5" width="54" height="54" fill="#cccccc" stroke="#000000" stroke-width="1" rx="5"/>
    <rect x="555" y="336" width="42" height="42" fill="#fbfbfb" rx="3"/>
    <text x="557" y="337" font-size="12" fill="#000000" font-family="sans-serif" text-anchor="start" dominant-baseline="hanging">←</text>
  </g>
  <g>
    <rect x="603.5" y="333.5" width="54" height="54" fill="#cccccc" stroke="#000000" stroke-width="1" rx="5"/>
    <rect x="609" y="336" width="42" height="42" fill="#fbfbfb" rx="3"/>
    <text x="611" y="337" font-size="12" fill="#000000" font-family="sans-serif" text-anchor="start" dominant-baseline="hanging">↓</text>
  </g>
  <g>
    <rect x="657.5" y="333.5" width="54" height="54" fill="#cccccc" stroke="#000000" stroke-width="1" rx="5"/>
    <rect x="663" y="336" width="42" height="42" fill="#fbfbfb" rx="3"/>
    <text x="665" y="337" font-size="12" fill="#000000" font-family="sans-serif" text-anchor="start" dominant-baseline="hanging">→</text>
  </g>
</svg>